<svg width="32" height="32" viewBox="0 0 32 32" fill="none" xmlns="http://www.w3.org/2000/svg">
<g clip-path="url(#clip0_507_348)">
<path d="M15.7267 28H6.66667C5.95942 28 5.28115 27.719 4.78105 27.2189C4.28095 26.7188 4 26.0405 4 25.3333V9.33329C4 8.62605 4.28095 7.94777 4.78105 7.44767C5.28115 6.94758 5.95942 6.66663 6.66667 6.66663H22.6667C23.3739 6.66663 24.0522 6.94758 24.5523 7.44767C25.0524 7.94777 25.3333 8.62605 25.3333 9.33329V14.6666" stroke="#EAEAEA" stroke-width="2" stroke-linecap="round" stroke-linejoin="round"/>
<path d="M23.9998 29.3333C26.9454 29.3333 29.3332 26.9455 29.3332 24C29.3332 21.0544 26.9454 18.6666 23.9998 18.6666C21.0543 18.6666 18.6665 21.0544 18.6665 24C18.6665 26.9455 21.0543 29.3333 23.9998 29.3333Z" stroke="#EAEAEA" stroke-width="2" stroke-linecap="round" stroke-linejoin="round"/>
<path d="M20 4V9.33333" stroke="#EAEAEA" stroke-width="2" stroke-linecap="round" stroke-linejoin="round"/>
<path d="M9.3335 4V9.33333" stroke="#EAEAEA" stroke-width="2" stroke-linecap="round" stroke-linejoin="round"/>
<path d="M4 14.6666H25.3333" stroke="#EAEAEA" stroke-width="2" stroke-linecap="round" stroke-linejoin="round"/>
<path d="M24 21.9946V24L25.3333 25.3333" stroke="#EAEAEA" stroke-width="2" stroke-linecap="round" stroke-linejoin="round"/>
</g>
<defs>
<clipPath id="clip0_507_348">
<rect width="32" height="32" fill="white"/>
</clipPath>
</defs>
</svg>
