<svg width="64" height="45" viewBox="0 0 64 45" fill="none" xmlns="http://www.w3.org/2000/svg">
<path d="M45.9052 0.800098L44.2848 0.846967C44.6098 12.1078 44.8806 22.2177 42.766 30.0134C40.6582 37.784 36.5732 40.8525 31.964 42.2363C27.396 43.6078 19.1071 43.6189 14.6613 42.2534C10.171 40.8743 6.49546 37.8578 4.29765 30.0948C2.09422 22.312 1.86082 12.0986 1.62108 0.806432L0 0.84095C0.23974 12.1331 0.441807 22.428 2.73738 30.5363C5.03857 38.6644 9.27158 42.2941 14.1853 43.8032C19.1436 45.3261 27.3756 45.3069 32.4302 43.7893C37.4436 42.2841 42.1085 38.63 44.3307 30.4378C46.546 22.2708 46.2302 12.061 45.9052 0.800103V0.800098Z" fill="#EAEAEA"/>
<path d="M44.3542 0.796211L44.3213 2.42996C49.1808 2.52834 53.7854 2.66791 56.9137 4.27367C58.4334 5.05368 59.7523 6.44373 60.7022 7.92815C61.652 9.41256 62.2249 11.0049 62.3334 12.0048C62.443 13.0155 62.247 14.7085 61.5942 16.3186C60.9415 17.9286 59.8557 19.4574 58.2545 20.3673C54.9438 22.2488 50.0596 22.181 44.4609 22.0365L44.4188 23.67C50.0174 23.8145 55.1597 24.0054 59.0618 21.7879C61.0671 20.6484 62.3544 18.7925 63.1086 16.9323C63.8628 15.0721 64.1077 13.2093 63.9579 11.8287C63.807 10.4373 63.1455 8.71506 62.0785 7.04746C61.0114 5.37986 59.5306 3.78038 57.6598 2.82011C54.0073 0.945296 49.2137 0.894596 44.3542 0.796211Z" fill="#EAEAEA"/>
</svg>
