<svg width="26" height="26" viewBox="0 0 26 26" fill="none" xmlns="http://www.w3.org/2000/svg">
<path d="M13.0108 0.000104489L0.456414 12.6685L13.1252 25.223L25.6793 12.5545L13.0108 0.000104489ZM13.0162 1.46823L24.5038 12.5612L13.1198 23.7549L1.63193 12.6619L13.0162 1.46823Z" fill="#62B919"/>
<path d="M20.661 12.6115C20.661 13.507 19.9351 14.2329 19.0396 14.2329C18.1441 14.2329 17.4182 13.507 17.4182 12.6115C17.4182 11.7161 18.1441 10.9901 19.0396 10.9901C19.9351 10.9901 20.661 11.7161 20.661 12.6115Z" fill="#62B919"/>
<path d="M8.67932 12.6115C8.67932 13.0416 8.50849 13.454 8.20442 13.758C7.90035 14.0621 7.48794 14.2329 7.05792 14.2329C6.6279 14.2329 6.21549 14.0621 5.91142 13.758C5.60735 13.454 5.43652 13.0416 5.43652 12.6115C5.43652 12.1815 5.60735 11.7691 5.91142 11.465C6.21549 11.161 6.6279 10.9901 7.05792 10.9901C7.48794 10.9901 7.90035 11.161 8.20442 11.465C8.50849 11.7691 8.67932 12.1815 8.67932 12.6115Z" fill="#62B919"/>
</svg>
