<svg width="80" height="80" viewBox="0 0 80 80" fill="none" xmlns="http://www.w3.org/2000/svg">
<g clip-path="url(#clip0_204_11554)">
<path d="M39.9998 40.0001C42.6369 40.0001 45.2148 39.2181 47.4074 37.753C49.6001 36.288 51.3091 34.2056 52.3182 31.7692C53.3274 29.3329 53.5914 26.652 53.077 24.0656C52.5625 21.4792 51.2926 19.1034 49.4279 17.2387C47.5632 15.374 45.1875 14.1041 42.601 13.5896C40.0146 13.0752 37.3337 13.3392 34.8974 14.3484C32.461 15.3575 30.3787 17.0665 28.9136 19.2592C27.4485 21.4518 26.6665 24.0297 26.6665 26.6668" stroke="#990069" stroke-width="5.5" stroke-linecap="round" stroke-linejoin="round"/>
<path d="M26.6665 53.3333C26.6665 55.9704 27.4485 58.5483 28.9136 60.7409C30.3787 62.9336 32.461 64.6426 34.8974 65.6517C37.3337 66.6609 40.0146 66.9249 42.601 66.4105C45.1875 65.896 47.5632 64.6261 49.4279 62.7614C51.2926 60.8967 52.5625 58.521 53.077 55.9345C53.5914 53.3481 53.3274 50.6672 52.3182 48.2309C51.3091 45.7945 49.6001 43.7122 47.4074 42.2471C45.2148 40.782 42.6369 40 39.9998 40" stroke="#990069" stroke-width="5.5" stroke-linecap="round" stroke-linejoin="round"/>
</g>
<defs>
<clipPath id="clip0_204_11554">
<rect width="80" height="80" fill="white"/>
</clipPath>
</defs>
</svg>
