<svg width="32" height="32" viewBox="0 0 32 32" fill="none" xmlns="http://www.w3.org/2000/svg">
<g clip-path="url(#clip0_320_9499)">
<path d="M21.3333 26.6667H25.3333C25.6869 26.6667 26.026 26.5262 26.2761 26.2762C26.5261 26.0261 26.6666 25.687 26.6666 25.3333V6.66668C26.6666 6.31305 26.5261 5.97392 26.2761 5.72387C26.026 5.47382 25.6869 5.33334 25.3333 5.33334H21.3333V26.6667Z" stroke="#62B919" stroke-width="2" stroke-linecap="round" stroke-linejoin="round"/>
<path d="M6.66659 26.6667H10.6666V5.33334H6.66659C6.31296 5.33334 5.97383 5.47382 5.72378 5.72387C5.47373 5.97392 5.33325 6.31305 5.33325 6.66668V25.3333C5.33325 25.687 5.47373 26.0261 5.72378 26.2762C5.97383 26.5262 6.31296 26.6667 6.66659 26.6667Z" stroke="#62B919" stroke-width="2" stroke-linecap="round" stroke-linejoin="round"/>
<path d="M21.3334 5.33334L16.0001 10.6667L10.6667 5.33334" stroke="#62B919" stroke-width="2" stroke-linecap="round" stroke-linejoin="round"/>
<path d="M5.33325 8.66666L15.9999 18.6667L26.6666 8.66666" stroke="#62B919" stroke-width="2" stroke-linecap="round" stroke-linejoin="round"/>
</g>
<defs>
<clipPath id="clip0_320_9499">
<rect width="32" height="32" fill="white"/>
</clipPath>
</defs>
</svg>
