<svg width="90" height="80" viewBox="0 0 90 80" fill="none" xmlns="http://www.w3.org/2000/svg">
<path d="M32.3317 0.000146815L14.6917 17.8003L32.4923 35.4402L50.1318 17.6401L32.3317 0.000146815ZM32.3393 2.06298L48.4801 17.6494L32.4848 33.3774L16.3434 17.7909L32.3393 2.06298Z" fill="#990069"/>
<path d="M43.081 17.7202C43.081 18.9784 42.0611 19.9984 40.8028 19.9984C39.5446 19.9984 38.5247 18.9784 38.5247 17.7202C38.5247 16.462 39.5446 15.442 40.8028 15.442C42.0611 15.442 43.081 16.462 43.081 17.7202Z" fill="#990069"/>
<path d="M26.2461 17.7202C26.2461 18.3244 26.006 18.9039 25.5788 19.3311C25.1516 19.7584 24.5721 19.9984 23.9679 19.9984C23.3637 19.9984 22.7842 19.7584 22.357 19.3311C21.9297 18.9039 21.6897 18.3244 21.6897 17.7202C21.6897 17.116 21.9297 16.5365 22.357 16.1093C22.7842 15.682 23.3637 15.442 23.9679 15.442C24.5721 15.442 25.1516 15.682 25.5788 16.1093C26.006 16.5365 26.2461 17.116 26.2461 17.7202Z" fill="#990069"/>
<path d="M64.5003 17.9849L62.2235 18.0507C62.6802 33.8731 63.0607 48.0782 60.0895 59.0319C57.1279 69.9501 51.3882 74.2615 44.9119 76.2059C38.4935 78.133 26.8469 78.1485 20.6003 76.23C14.2911 74.2922 9.12663 70.0537 6.03854 59.1462C2.94254 48.2108 2.6146 33.8601 2.27774 17.9938L0 18.0423C0.336853 33.9086 0.620773 48.3738 3.84622 59.7665C7.07958 71.1871 13.0273 76.2871 19.9315 78.4076C26.8983 80.5473 38.4649 80.5203 45.5669 78.388C52.6111 76.2731 59.1657 71.1388 62.288 59.6281C65.4007 48.1529 64.957 33.8072 64.5003 17.9849V17.9849Z" fill="#EAEAEA"/>
<path d="M62.3214 17.9795L62.2751 20.275C69.1031 20.4133 75.5729 20.6094 79.9685 22.8656C82.1037 23.9616 83.9569 25.9147 85.2915 28.0004C86.6261 30.0861 87.4311 32.3234 87.5835 33.7284C87.7376 35.1485 87.4622 37.5273 86.545 39.7896C85.6278 42.0518 84.1021 44.1999 81.8524 45.4784C77.2005 48.122 70.3379 48.0268 62.4714 47.8238L62.4122 50.1189C70.2787 50.3219 77.504 50.5902 82.9866 47.4745C85.8042 45.8733 87.6131 43.2656 88.6728 40.6519C89.7325 38.0382 90.0766 35.4208 89.8662 33.481C89.6541 31.5259 88.7246 29.1061 87.2253 26.763C85.726 24.4199 83.6454 22.1725 81.0168 20.8232C75.8847 18.189 69.1493 18.1177 62.3214 17.9795Z" fill="#EAEAEA"/>
</svg>
