<svg width="32" height="32" viewBox="0 0 32 32" fill="none" xmlns="http://www.w3.org/2000/svg">
<g clip-path="url(#clip0_390_13178)">
<path d="M13.1039 12.2293C12.3581 11.4833 11.4078 10.9752 10.3732 10.7693C9.33858 10.5633 8.26614 10.6689 7.29151 11.0725C6.31687 11.4761 5.48383 12.1597 4.89772 13.0368C4.31161 13.9139 3.99878 14.9451 3.99878 16C3.99878 17.0549 4.31161 18.0861 4.89772 18.9632C5.48383 19.8403 6.31687 20.5239 7.29151 20.9275C8.26614 21.3311 9.33858 21.4366 10.3732 21.2307C11.4078 21.0248 12.3581 20.5167 13.1039 19.7707C14.2874 18.6974 15.2683 17.4202 15.9999 16C16.7316 14.5798 17.7125 13.3026 18.8959 12.2293C19.6417 11.4833 20.592 10.9752 21.6267 10.7693C22.6613 10.5633 23.7337 10.6689 24.7083 11.0725C25.683 11.4761 26.516 12.1597 27.1021 13.0368C27.6882 13.9139 28.0011 14.9451 28.0011 16C28.0011 17.0549 27.6882 18.0861 27.1021 18.9632C26.516 19.8403 25.683 20.5239 24.7083 20.9275C23.7337 21.3311 22.6613 21.4366 21.6267 21.2307C20.592 21.0248 19.6417 20.5167 18.8959 19.7707C17.7125 18.6974 16.7316 17.4202 15.9999 16C15.2683 14.5798 14.2874 13.3026 13.1039 12.2293" stroke="#62B919" stroke-width="2" stroke-linecap="round" stroke-linejoin="round"/>
</g>
<defs>
<clipPath id="clip0_390_13178">
<rect width="32" height="32" fill="white"/>
</clipPath>
</defs>
</svg>
